<svg xmlns="http://www.w3.org/2000/svg" xmlns:xlink="http://www.w3.org/1999/xlink" viewBox="-2236.693 681.344 30.088 33.702">
  <defs>
    <style>
      .cls-1 {
        fill: url(#linear-gradient);
      }

      .cls-2 {
        fill: url(#linear-gradient-2);
      }

      .cls-3 {
        fill: url(#linear-gradient-4);
      }

      .cls-4 {
        fill: url(#linear-gradient-8);
      }

      .cls-5 {
        fill: url(#linear-gradient-9);
      }

      .cls-6 {
        fill: url(#linear-gradient-15);
      }

      .cls-7 {
        fill: url(#linear-gradient-16);
      }

      .cls-8 {
        fill: url(#linear-gradient-17);
      }

      .cls-9 {
        fill: url(#linear-gradient-18);
      }

      .cls-10 {
        fill: url(#linear-gradient-19);
      }

      .cls-11 {
        fill: url(#linear-gradient-20);
      }

      .cls-12 {
        fill: url(#linear-gradient-21);
      }
    </style>
    <linearGradient id="linear-gradient" y1="0.5" x2="1" y2="0.5" gradientUnits="objectBoundingBox">
      <stop offset="0" stop-color="#78ccc6"/>
      <stop offset="1" stop-color="#0086a8"/>
    </linearGradient>
    <linearGradient id="linear-gradient-2" x1="0" x2="1.007" xlink:href="#linear-gradient"/>
    <linearGradient id="linear-gradient-4" x1="-0.007" x2="1" xlink:href="#linear-gradient"/>
    <linearGradient id="linear-gradient-8" x1="0" x2="1.012" xlink:href="#linear-gradient"/>
    <linearGradient id="linear-gradient-9" x1="-0.012" x2="1" xlink:href="#linear-gradient"/>
    <linearGradient id="linear-gradient-15" x1="-12.852" y1="149.252" x2="-11.85" y2="149.252" xlink:href="#linear-gradient"/>
    <linearGradient id="linear-gradient-16" x1="-12.852" y1="145.034" x2="-11.85" y2="145.034" xlink:href="#linear-gradient"/>
    <linearGradient id="linear-gradient-17" x1="-12.852" y1="138.941" x2="-11.85" y2="138.941" xlink:href="#linear-gradient"/>
    <linearGradient id="linear-gradient-18" x1="-12.852" y1="133.714" x2="-11.85" y2="133.714" xlink:href="#linear-gradient"/>
    <linearGradient id="linear-gradient-19" x1="-12.852" y1="128.481" x2="-11.85" y2="128.481" xlink:href="#linear-gradient"/>
    <linearGradient id="linear-gradient-20" x1="0.885" y1="0.5" x2="0.135" y2="0.5" gradientUnits="objectBoundingBox">
      <stop offset="0" stop-color="#78ccc6"/>
      <stop offset="1" stop-color="#0b8cab"/>
    </linearGradient>
    <linearGradient id="linear-gradient-21" x1="0.898" y1="0.5" x2="0.156" y2="0.5" gradientUnits="objectBoundingBox">
      <stop offset="0" stop-color="#78ccc6"/>
      <stop offset="1" stop-color="#0a8caa"/>
    </linearGradient>
  </defs>
  <g id="P-single" transform="translate(-2236.692 681.344)">
    <g id="Layer_1" data-name="Layer 1" transform="translate(-0.001 0)">
      <circle id="Ellipse_2020" data-name="Ellipse 2020" class="cls-1" cx="1.758" cy="1.758" r="1.758" transform="translate(14.618 0)"/>
      <circle id="Ellipse_2021" data-name="Ellipse 2021" class="cls-2" cx="1.758" cy="1.758" r="1.758" transform="translate(20.269 1.557)"/>
      <circle id="Ellipse_2022" data-name="Ellipse 2022" class="cls-2" cx="1.758" cy="1.758" r="1.758" transform="translate(24.513 5.349)"/>
      <circle id="Ellipse_2023" data-name="Ellipse 2023" class="cls-3" cx="1.758" cy="1.758" r="1.758" transform="translate(26.572 11.628)"/>
      <circle id="Ellipse_2024" data-name="Ellipse 2024" class="cls-2" cx="1.758" cy="1.758" r="1.758" transform="translate(24.513 17.228)"/>
      <circle id="Ellipse_2025" data-name="Ellipse 2025" class="cls-2" cx="1.758" cy="1.758" r="1.758" transform="translate(20.269 20.97)"/>
      <circle id="Ellipse_2026" data-name="Ellipse 2026" class="cls-3" cx="1.758" cy="1.758" r="1.758" transform="translate(14.618 22.351)"/>
      <circle id="Ellipse_2027" data-name="Ellipse 2027" class="cls-4" cx="1.03" cy="1.03" r="1.03" transform="translate(15.723 5.349)"/>
      <circle id="Ellipse_2028" data-name="Ellipse 2028" class="cls-5" cx="1.03" cy="1.03" r="1.03" transform="translate(19.063 6.253)"/>
      <circle id="Ellipse_2029" data-name="Ellipse 2029" class="cls-1" cx="1.03" cy="1.03" r="1.03" transform="translate(21.549 8.489)"/>
      <circle id="Ellipse_2030" data-name="Ellipse 2030" class="cls-5" cx="1.03" cy="1.03" r="1.03" transform="translate(22.755 12.155)"/>
      <circle id="Ellipse_2031" data-name="Ellipse 2031" class="cls-1" cx="1.03" cy="1.03" r="1.03" transform="translate(21.549 15.445)"/>
      <circle id="Ellipse_2032" data-name="Ellipse 2032" class="cls-5" cx="1.03" cy="1.03" r="1.03" transform="translate(19.063 17.655)"/>
      <circle id="Ellipse_2033" data-name="Ellipse 2033" class="cls-1" cx="1.03" cy="1.03" r="1.03" transform="translate(15.723 18.458)"/>
      <path id="Path_5212" data-name="Path 5212" class="cls-6" d="M1.759,15.551A1.758,1.758,0,0,0,3.442,14.27H9.494a1.758,1.758,0,1,0,0-1H3.442a1.758,1.758,0,1,0-1.683,2.26Z" transform="translate(0.001 18.151)"/>
      <path id="Path_5213" data-name="Path 5213" class="cls-7" d="M1.759,13.116A1.758,1.758,0,0,0,3.442,11.86H9.494a1.758,1.758,0,1,0,0-1H3.442a1.758,1.758,0,1,0-1.683,2.26Z" transform="translate(0.001 14.509)"/>
      <path id="Path_5214" data-name="Path 5214" class="cls-8" d="M1.759,10.791A1.758,1.758,0,0,0,3.442,9.51H9.494a1.758,1.758,0,1,0,0-1H3.442a1.758,1.758,0,1,0-1.683,2.26Z" transform="translate(0.001 10.957)"/>
      <path id="Path_5215" data-name="Path 5215" class="cls-9" d="M1.759,8.371A1.758,1.758,0,0,0,3.442,7.09H9.494a1.758,1.758,0,1,0,0-1H3.442a1.758,1.758,0,1,0-1.683,2.26Z" transform="translate(0.001 7.3)"/>
      <path id="Path_5216" data-name="Path 5216" class="cls-10" d="M1.759,5.951A1.758,1.758,0,0,0,3.442,4.67H9.494a1.758,1.758,0,1,0,0-1H3.442a1.758,1.758,0,1,0-1.683,2.26Z" transform="translate(0.001 3.642)"/>
      <path id="Path_5217" data-name="Path 5217" class="cls-11" d="M1.759,3.541A1.758,1.758,0,0,0,3.442,2.26H9.494a1.758,1.758,0,1,0,0-1H3.442a1.758,1.758,0,1,0-1.683,2.26Z" transform="translate(0.001 0)"/>
      <path id="Path_5218" data-name="Path 5218" class="cls-12" d="M11.177,15.551A1.758,1.758,0,0,1,9.494,14.27H3.442a1.758,1.758,0,1,1,0-1H9.494a1.758,1.758,0,1,1,1.683,2.26Z" transform="translate(0.001 18.151)"/>
      <path id="Path_5219" data-name="Path 5219" class="cls-12" d="M11.177,13.116A1.758,1.758,0,0,1,9.494,11.86H3.442a1.758,1.758,0,1,1,0-1H9.494a1.758,1.758,0,1,1,1.683,2.26Z" transform="translate(0.001 14.509)"/>
      <path id="Path_5220" data-name="Path 5220" class="cls-12" d="M11.177,10.791A1.758,1.758,0,0,1,9.494,9.51H3.442a1.758,1.758,0,1,1,0-1H9.494a1.758,1.758,0,1,1,1.683,2.26Z" transform="translate(0.001 10.957)"/>
      <path id="Path_5221" data-name="Path 5221" class="cls-12" d="M11.177,8.371A1.758,1.758,0,0,1,9.494,7.09H3.442a1.758,1.758,0,1,1,0-1H9.494a1.758,1.758,0,1,1,1.683,2.26Z" transform="translate(0.001 7.3)"/>
      <path id="Path_5222" data-name="Path 5222" class="cls-12" d="M11.177,5.951A1.758,1.758,0,0,1,9.494,4.67H3.442a1.758,1.758,0,1,1,0-1H9.494a1.758,1.758,0,1,1,1.683,2.26Z" transform="translate(0.001 3.642)"/>
    </g>
  </g>
</svg>
