<svg xmlns="http://www.w3.org/2000/svg" xmlns:xlink="http://www.w3.org/1999/xlink" viewBox="2815 -2097 40 40">
  <defs>
    <style>
      .cls-1 {
        fill: url(#linear-gradient);
      }

      .cls-2 {
        clip-path: url(#clip-path);
      }

      .cls-3 {
        fill: #4a5058;
      }

      .cls-4 {
        opacity: 0.15;
      }

      .cls-5 {
        opacity: 0.2;
      }

      .cls-6 {
        fill: #e8e8e8;
      }

      .cls-7 {
        opacity: 0.1;
      }

      .cls-8 {
        fill: #edbcb9;
      }

      .cls-9 {
        fill: #d46d59;
      }

      .cls-10 {
        fill: #fff;
      }
    </style>
    <linearGradient id="linear-gradient" x2="1" y2="0.776" gradientUnits="objectBoundingBox">
      <stop offset="0" stop-color="#68eace"/>
      <stop offset="1" stop-color="#5dade2"/>
    </linearGradient>
    <clipPath id="clip-path">
      <circle id="Ellipse_1604" data-name="Ellipse 1604" class="cls-1" cx="20" cy="20" r="20"/>
    </clipPath>
  </defs>
  <g id="Group_6126" data-name="Group 6126" transform="translate(-256 -1817)">
    <circle id="Ellipse_1603" data-name="Ellipse 1603" class="cls-1" cx="20" cy="20" r="20" transform="translate(3071 -280)"/>
    <g id="Mask_Group_1" data-name="Mask Group 1" class="cls-2" transform="translate(3071 -280)">
      <g id="Group_3809" data-name="Group 3809" transform="translate(-2.094 5.556)">
        <circle id="Ellipse_1596" data-name="Ellipse 1596" class="cls-3" cx="2.515" cy="2.515" r="2.515" transform="translate(0 17.731)"/>
        <path id="Path_48" data-name="Path 48" class="cls-4" d="M15.037,263.89a7.01,7.01,0,0,0-3.916,3.057,2.515,2.515,0,0,0,3.916-3.057Z" transform="translate(-10.319 -244.86)"/>
        <path id="Path_49" data-name="Path 49" class="cls-3" d="M230.838,368.839v-2.9a2.87,2.87,0,0,0-2.87-2.87h0a2.87,2.87,0,0,0-2.87,2.87v5.247a1.256,1.256,0,0,0,1.256,1.256h5.553a1.012,1.012,0,0,0,1.012-1.012A2.654,2.654,0,0,0,230.838,368.839Z" transform="translate(-208.865 -336.887)"/>
        <path id="Path_50" data-name="Path 50" class="cls-5" d="M230.838,368.839v-2.9a2.87,2.87,0,0,0-2.87-2.87h0a2.87,2.87,0,0,0-2.87,2.87v5.247a1.256,1.256,0,0,0,1.256,1.256h5.553a1.012,1.012,0,0,0,1.012-1.012A2.654,2.654,0,0,0,230.838,368.839Z" transform="translate(-208.865 -336.887)"/>
        <path id="Path_51" data-name="Path 51" class="cls-4" d="M227.968,363.071h0a2.87,2.87,0,0,0-2.87,2.87v3.066a7.277,7.277,0,0,0,5.737-3.181A2.869,2.869,0,0,0,227.968,363.071Z" transform="translate(-208.865 -336.888)"/>
        <path id="Path_52" data-name="Path 52" class="cls-6" d="M28.023,275.051H18.873a5.2,5.2,0,0,1-5.2-5.2h0a6.992,6.992,0,0,1,6.992-6.992H30.9a4.411,4.411,0,0,1,4.411,4.411v.5A7.286,7.286,0,0,1,28.023,275.051Z" transform="translate(-12.683 -243.899)"/>
        <path id="Path_53" data-name="Path 53" class="cls-3" d="M151.25,275.851v-13h-3.2a2.535,2.535,0,0,0-2.535,2.535V278.2a1.256,1.256,0,0,0,1.256,1.256h5.546a1.022,1.022,0,0,0,1.02-1.033A2.654,2.654,0,0,0,151.25,275.851Z" transform="translate(-135.018 -243.898)"/>
        <path id="Path_54" data-name="Path 54" class="cls-7" d="M128.985,262.854h-9.606c1.884,4.554,6.813,7.8,12.6,7.8.28,0,.558-.009.834-.024a7.261,7.261,0,0,0,.588-2.87v-.5A4.411,4.411,0,0,0,128.985,262.854Z" transform="translate(-110.77 -243.898)"/>
        <circle id="Ellipse_1597" data-name="Ellipse 1597" class="cls-3" cx="4.408" cy="4.408" r="4.408" transform="translate(28.106 0)"/>
        <circle id="Ellipse_1598" data-name="Ellipse 1598" class="cls-8" cx="1.897" cy="1.897" r="1.897" transform="translate(30.617 2.512)"/>
        <ellipse id="Ellipse_1599" data-name="Ellipse 1599" class="cls-6" cx="13.414" cy="11.91" rx="13.414" ry="11.91" transform="translate(9.212 1.516)"/>
        <path id="Path_55" data-name="Path 55" class="cls-8" d="M343.021,219.556a.854.854,0,1,0-1.709,0,.849.849,0,0,1-.5-.162v1.555a1.354,1.354,0,0,0,2.708,0v-1.555A.849.849,0,0,1,343.021,219.556Z" transform="translate(-316.234 -202.93)"/>
        <path id="Path_56" data-name="Path 56" class="cls-9" d="M343.466,252.923a2.625,2.625,0,0,0-1.253.292,1.354,1.354,0,0,0,2.506,0A2.625,2.625,0,0,0,343.466,252.923Z" transform="translate(-317.534 -234.684)"/>
        <g id="Group_3806" data-name="Group 3806" transform="translate(8.022 0)">
          <path id="Path_57" data-name="Path 57" class="cls-3" d="M330.881,212.573a1.44,1.44,0,0,0-1.709,0,1.445,1.445,0,0,1-1.443-1.443.588.588,0,0,1,1.177,0,.266.266,0,1,0,.532,0,.588.588,0,1,1,1.177,0,.266.266,0,1,0,.532,0,.588.588,0,0,1,1.177,0A1.444,1.444,0,0,1,330.881,212.573Z" transform="translate(-312.117 -195.359)"/>
          <path id="Path_58" data-name="Path 58" class="cls-3" d="M337.944,173.8l-.4.479a1.73,1.73,0,0,1-2.65,0l-.4-.479a.379.379,0,0,1,.29-.623h2.874A.379.379,0,0,1,337.944,173.8Z" transform="translate(-318.307 -160.693)"/>
          <path id="Path_59" data-name="Path 59" class="cls-3" d="M118.763,1.292a4.409,4.409,0,0,0-6.235,6.235c1.722,1.722,3.823,1.031,5.545-.69S120.484,3.013,118.763,1.292Z" transform="translate(-111.236 0)"/>
        </g>
        <circle id="Ellipse_1600" data-name="Ellipse 1600" class="cls-8" cx="1.897" cy="1.897" r="1.897" transform="translate(10.533 2.512)"/>
        <g id="Group_3807" data-name="Group 3807" transform="translate(13.674 10.132)">
          <path id="Path_60" data-name="Path 60" class="cls-3" d="M190.453,143.219a2.856,2.856,0,0,0,4.039,4.039l1.888-1.888a2.856,2.856,0,0,0-4.039-4.039Z" transform="translate(-189.617 -140.495)"/>
          <path id="Path_61" data-name="Path 61" class="cls-3" d="M425.535,142.076l-.744-.744a2.856,2.856,0,1,0-4.039,4.039l1.888,1.888a2.847,2.847,0,0,0,2.132.834,10.689,10.689,0,0,0,.763-6.016Z" transform="translate(-403.307 -140.495)"/>
        </g>
        <g id="Group_3808" data-name="Group 3808" transform="translate(17.829 11.892)">
          <path id="Path_62" data-name="Path 62" class="cls-10" d="M247.825,168.1a.588.588,0,0,1-.588-.588v-.876a.588.588,0,1,1,1.177,0v.876A.588.588,0,0,1,247.825,168.1Z" transform="translate(-247.237 -165.963)"/>
          <path id="Path_63" data-name="Path 63" class="cls-10" d="M442.974,166.836a.588.588,0,0,1-.588-.588.168.168,0,1,0-.335,0,.588.588,0,0,1-1.177,0,1.344,1.344,0,1,1,2.689,0A.588.588,0,0,1,442.974,166.836Z" transform="translate(-426.91 -164.903)"/>
        </g>
        <path id="Path_64" data-name="Path 64" class="cls-3" d="M19.407,368.839v-2.9a2.87,2.87,0,1,0-5.74,0v5.247a1.256,1.256,0,0,0,1.256,1.256h5.553a1.012,1.012,0,0,0,1.012-1.012A2.654,2.654,0,0,0,19.407,368.839Z" transform="translate(-12.681 -336.887)"/>
      </g>
    </g>
  </g>
</svg>
