<svg xmlns="http://www.w3.org/2000/svg" xmlns:xlink="http://www.w3.org/1999/xlink" viewBox="0 0 1281 802"><defs><style>.a{fill:#fff;stroke:#707070;}.b{fill:#0091cc;}.c{clip-path:url(#a);}.d{opacity:0.236;clip-path:url(#b);}.e,.f{fill:#607d8b;}.e{opacity:0.184;}.f{opacity:0.201;}</style><clipPath id="a"><rect class="a" width="1281" height="802" transform="translate(0 -2)"/></clipPath><clipPath id="b"><rect class="b" width="2870.818" height="1036.653" transform="translate(-1931 5259)"/></clipPath></defs><g class="c" transform="translate(0 2)"><g class="d" transform="translate(1131.407 -5495.689)"><path class="e" d="M0,292.247,214.164,100.338C329.915-3.41,506.345-16.074,637.393,70.139L819.942,190.447c54.051,35.557,124.419,40.915,183.569,12.664h0c60.68-28.738,134.107-10.716,172.861,42.376h0c85.666,117.873,262.606,132.972,369.178,31.66l45.892-43.837c135.127-129.076,353.881-129.076,489.008,0l6.629,6.332c147.365,140.765,385.5,140.765,532.86,0L2870.818,0V599.105H0Z" transform="translate(-1904.489 5699.721)"/><path class="f" d="M0,292.247,214.164,100.338C329.915-3.41,506.345-16.074,637.393,70.139L819.942,190.447c54.051,35.557,124.419,40.915,183.569,12.664h0c60.68-28.738,134.107-10.716,172.861,42.376h0c85.666,117.873,262.606,132.972,369.178,31.66l45.892-43.837c135.127-129.076,353.881-129.076,489.008,0l6.629,6.332c147.365,140.765,385.5,140.765,532.86,0L2870.818,0V599.105H0Z" transform="translate(-1385.436 5927.545)"/></g></g></svg>